:SAMPLES-PER-SECOND 30
:FULLY-SPECIFIED
:DEGREES
149
root  6.9123 21.8009 0.604326 139.09 -84.2184 -99.8545
RightUpLeg  -33.2249 -3.72189 -4.3238
RightLeg  99.8109 4.30324 -18.2871
RightFoot  -10.9382 -0.109583 9.17717
RightToes  -1.33073e-015 0 -3.6325e-017
Spine  52.1266 -4.39741 11.8699
Spine1  -7.61948 2.289 -6.36714
HEad  -43.6658 2.22584 -3.26375
LeftShoulder1  10.4633 -21.1165 -36.327
LeftArm  1.3956 -42.7764 -44.9742
LeftForeArm  68.176 -35.0819 -4.25503
LeftHand  -0.244104 0.0205437 5.32207
RightShoulder  1.75244 8.73131 6.70669
RightArm  -16.8446 70.996 46.253
RightForeArm  18.9461 1.06538 2.18762
RightHand  -28.8066 40.7208 -64.6712
LeftUpLeg  -39.6448 5.07619 1.0268
LeftLeg  102.666 -2.51449 8.48821
LeftFoot  -0.657479 0.705339 -7.4961
LeftToes  -7.82198e-011 2.46994e-011 -7.94165e-012
150
root  6.54473 21.8959 0.70164 136.868 -84.104 -97.8058
RightUpLeg  -38.631 -4.66523 -3.94147
RightLeg  106.148 6.50542 -18.1127
RightFoot  -13.8945 0.0775779 7.56165
RightToes  -1.33073e-015 0 -3.6325e-017
Spine  51.968 -4.70962 12.6873
Spine1  -7.05373 2.20426 -5.15422
HEad  -43.4362 2.71059 -4.36933
LeftShoulder1  10.2026 -21.0031 -35.4781
LeftArm  -4.31535 -44.7425 -43.9487
LeftForeArm  72.1928 -40.6828 -5.48617
LeftHand  -0.244104 0.0205437 5.32207
RightShoulder  1.80221 8.83351 7.02765
RightArm  -14.8394 70.8762 48.1829
RightForeArm  20.7651 1.35142 2.2912
RightHand  -28.9939 40.8343 -64.8828
LeftUpLeg  -38.5046 4.93687 0.939908
LeftLeg  101.359 -2.45911 9.12118
LeftFoot  0.0229853 0.738464 -7.41792
LeftToes  -7.82198e-011 2.46994e-011 -7.94165e-012
151
root  6.20585 21.9725 0.748303 133.89 -84.2228 -94.9683
RightUpLeg  -44.2567 -5.25869 -3.70228
RightLeg  111.879 7.8166 -16.2822
RightFoot  -16.645 0.244371 7.67248
RightToes  -1.33073e-015 0 -3.6325e-017
Spine  51.9361 -5.09773 13.1546
Spine1  -6.75324 1.81515 -3.80462
HEad  -43.449 3.34309 -5.63554
LeftShoulder1  9.49041 -20.4134 -33.5613
LeftArm  -9.81793 -48.4455 -42.4334
LeftForeArm  73.9937 -44.1951 -6.39054
LeftHand  -0.244104 0.0205437 5.32207
RightShoulder  1.83348 9.22024 6.80474
RightArm  -12.9295 70.5719 50.9325
RightForeArm  22.8365 1.51163 2.14872
RightHand  -29.2459 40.9773 -65.1781
LeftUpLeg  -37.5207 4.48169 0.942984
LeftLeg  100.286 -2.31469 9.29584
LeftFoot  0.583937 0.765531 -7.35777
LeftToes  -7.82198e-011 2.46994e-011 -7.94165e-012
152
root  5.84481 22.026 0.738131 130.117 -84.4726 -91.3203
RightUpLeg  -49.5882 -5.37527 -3.54988
RightLeg  116.411 8.13467 -13.924
RightFoot  -18.3765 0.383369 8.26614
RightToes  -1.33073e-015 0 -3.6325e-017
Spine  52.0455 -5.36536 13.3825
Spine1  -6.61079 1.45366 -2.55712
HEad  -43.6131 3.79441 -6.83427
LeftShoulder1  8.64204 -19.6731 -31.1859
LeftArm  -15.669 -53.2149 -39.7644
LeftForeArm  73.7091 -44.9986 -6.64361
LeftHand  -0.244104 0.0205437 5.32207
RightShoulder  1.85569 9.51711 6.62542
RightArm  -11.1295 69.983 53.3992
RightForeArm  24.8015 1.89434 2.09507
RightHand  -29.489 41.1333 -65.4395
LeftUpLeg  -36.373 3.92772 1.0906
LeftLeg  99.1294 -2.08871 9.16292
LeftFoot  0.865913 0.768032 -7.22675
LeftToes  -7.82198e-011 2.46994e-011 -7.94165e-012
153
root  5.4542 22.0527 0.677809 120.477 -84.9557 -82.1317
RightUpLeg  -53.669 -5.40348 -3.53466
RightLeg  119.095 7.86646 -12.0819
RightFoot  -19.744 0.493289 8.52253
RightToes  -1.33073e-015 0 -3.6325e-017
Spine  52.3562 -5.64382 13.5175
Spine1  -6.52195 1.02056 -0.82496
HEad  -43.6257 3.96134 -7.96538
LeftShoulder1  7.93134 -19.1941 -28.8155
LeftArm  -22.3493 -58.1406 -35.1058
LeftForeArm  72.3276 -42.8471 -6.08124
LeftHand  -0.244104 0.0205437 5.32207
RightShoulder  1.9356 9.76637 7.0004
RightArm  -9.42197 69.2389 54.555
RightForeArm  26.1012 2.25219 2.3672
RightHand  -29.6386 41.2375 -65.5892
LeftUpLeg  -34.7701 2.99496 1.33878
LeftLeg  97.8688 -1.86142 9.07878
LeftFoot  1.17386 0.752906 -6.92736
LeftToes  -7.82198e-011 2.46994e-011 -7.94165e-012
154
root  5.02714 22.072 0.577006 102.038 -85.3966 -64.3358
RightUpLeg  -56.2744 -5.50328 -3.73968
RightLeg  119.736 7.31606 -10.9371
RightFoot  -20.7899 0.622271 9.21836
RightToes  -1.33073e-015 0 -3.6325e-017
Spine  52.7811 -6.09002 13.5552
Spine1  -6.58742 0.296545 1.50885
HEad  -43.5559 4.08312 -8.80725
LeftShoulder1  7.28684 -18.8813 -26.3541
LeftArm  -30.2525 -62.4962 -27.9434
LeftForeArm  70.4375 -38.0163 -4.8796
LeftHand  -0.244104 0.0205437 5.32207
RightShoulder  2.06569 10.112 7.65728
RightArm  -7.76936 68.3496 55.3804
RightForeArm  26.996 2.42798 2.70658
RightHand  -30.0863 41.4747 -66.12
LeftUpLeg  -32.9545 1.66527 1.62806
LeftLeg  96.553 -1.67861 9.30855
LeftFoot  1.51906 0.752408 -6.75327
LeftToes  -7.82198e-011 2.46994e-011 -7.94165e-012
155
root  4.52005 22.0586 0.443113 82.6075 -85.387 -45.1685
RightUpLeg  -57.9019 -5.47427 -3.96681
RightLeg  119.156 6.8878 -10.5171
RightFoot  -20.1368 0.679587 10.6218
RightToes  -1.33073e-015 0 -3.6325e-017
Spine  52.9191 -6.56738 13.3785
Spine1  -6.72466 -0.550138 3.36116
HEad  -43.6881 4.38327 -9.05994
LeftShoulder1  6.64181 -18.3256 -24.1453
LeftArm  -38.8737 -66.0859 -18.5276
LeftForeArm  67.4109 -31.2533 -3.40608
LeftHand  -0.244104 0.0205437 5.32207
RightShoulder  2.20273 10.5281 8.24675
RightArm  -6.29044 67.1087 56.8113
RightForeArm  28.0464 2.81087 2.90018
RightHand  -30.9663 41.9204 -67.1693
LeftUpLeg  -31.2906 0.580577 1.90644
LeftLeg  95.0605 -1.49663 9.85528
LeftFoot  1.58953 0.764125 -6.82394
LeftToes  -7.82198e-011 2.46994e-011 -7.94165e-012
156
root  3.90157 21.9545 0.279856 68.0098 -85.2732 -30.3481
RightUpLeg  -58.5739 -5.39746 -4.10061
RightLeg  118.755 6.82445 -10.5841
RightFoot  -17.5045 0.512385 11.6806
RightToes  -1.33073e-015 0 -3.6325e-017
Spine  52.4426 -6.86311 12.892
Spine1  -6.66696 -1.27363 4.12504
HEad  -43.9033 4.65734 -8.83874
LeftShoulder1  6.19122 -17.5773 -23.0473
LeftArm  -46.0622 -69.1419 -8.29124
LeftForeArm  62.3974 -23.1995 -2.11313
LeftHand  -0.244104 0.0205437 5.32207
RightShoulder  2.3745 10.9999 8.99705
RightArm  -5.34251 65.3089 57.8021
RightForeArm  29.161 3.64097 3.10665
RightHand  -31.8354 42.3562 -68.1844
LeftUpLeg  -29.619 -0.0389244 2.00194
LeftLeg  93.2569 -1.22978 10.3882
LeftFoot  1.36493 0.757423 -6.87249
LeftToes  -7.82198e-011 2.46994e-011 -7.94165e-012
157
root  3.20502 21.7672 0.0859423 51.49 -85.1197 -13.5912
RightUpLeg  -57.5236 -5.62991 -4.42192
RightLeg  118.879 6.72896 -10.3784
RightFoot  -15.1668 0.308711 12.2949
RightToes  -1.33073e-015 0 -3.6325e-017
Spine  51.6094 -6.94544 12.0729
Spine1  -6.49555 -1.90333 4.70751
HEad  -43.8602 4.4829 -8.54819
LeftShoulder1  6.06842 -17.203 -22.982
LeftArm  -49.6481 -71.5954 -0.426208
LeftForeArm  57.4217 -14.8099 -2.06735
LeftHand  -0.244104 0.0205437 5.32207
RightShoulder  2.63895 11.5155 10.3315
RightArm  -5.0127 62.9372 57.3374
RightForeArm  30.0354 4.53487 3.44651
RightHand  -32.4714 42.6681 -68.9173
LeftUpLeg  -27.5835 -0.842212 1.80884
LeftLeg  91.2282 -0.86062 10.4719
LeftFoot  1.01846 0.7396 -6.8837
LeftToes  -7.82198e-011 2.46994e-011 -7.94165e-012
158
root  2.44223 21.5958 -0.114666 37.6731 -84.3361 0.414795
RightUpLeg  -54.6421 -6.1043 -4.37945
RightLeg  118.286 6.36385 -10.0226
RightFoot  -15.2849 0.365137 13.4945
RightToes  -1.33073e-015 0 -3.6325e-017
Spine  50.9089 -6.98197 11.4865
Spine1  -6.66515 -2.34124 5.67663
HEad  -43.6995 3.80285 -8.26495
LeftShoulder1  6.11444 -17.4271 -22.8812
LeftArm  -47.5781 -72.9621 0.809957
LeftForeArm  55.3095 -8.14217 -3.40681
LeftHand  -0.244104 0.0205437 5.32207
RightShoulder  2.99964 11.962 12.3563
RightArm  -5.02511 60.1056 56.0491
RightForeArm  30.8505 5.34703 3.79767
RightHand  -33.1271 42.9676 -69.6853
LeftUpLeg  -25.3475 -1.99187 2.03933
LeftLeg  88.9858 -0.435613 10.0255
LeftFoot  0.564618 0.745388 -7.1782
LeftToes  -7.82198e-011 2.46994e-011 -7.94165e-012
159
root  1.55436 21.5162 -0.262276 41.8785 -83.2652 -3.1076
RightUpLeg  -51.3491 -6.22742 -2.5796
RightLeg  115.856 6.12357 -10.6632
RightFoot  -17.0421 0.663066 15.5354
RightToes  -1.33073e-015 0 -3.6325e-017
Spine  50.3709 -7.09546 12.2132
Spine1  -7.32894 -2.05331 5.73794
HEad  -43.8816 2.86383 -7.67033
LeftShoulder1  6.15844 -17.7413 -22.6383
LeftArm  -39.2658 -73.1937 -4.65706
LeftForeArm  54.8008 -5.12062 -4.70282
LeftHand  -0.244104 0.0205437 5.32207
RightShoulder  3.46038 12.4314 14.9017
RightArm  -5.32827 56.6714 54.3488
RightForeArm  31.6754 6.94827 4.16371
RightHand  -33.7197 43.2284 -70.3808
LeftUpLeg  -23.3594 -2.39153 3.79408
LeftLeg  86.201 0.0347127 9.29231
LeftFoot  0.251586 0.774527 -7.63644
LeftToes  -7.82198e-011 2.46994e-011 -7.94165e-012
160
root  0.549458 21.4717 -0.343933 60.9592 -82.4858 -20.8972
RightUpLeg  -48.8931 -5.64573 0.705715
RightLeg  112.329 6.12511 -12.4511
RightFoot  -18.4119 0.970664 17.6436
RightToes  -1.33073e-015 0 -3.6325e-017
Spine  49.7951 -6.9957 14.1539
Spine1  -8.00906 -0.743373 3.54853
HEad  -44.3463 1.66697 -6.58339
LeftShoulder1  6.18658 -17.5578 -23.0516
LeftArm  -31.1803 -73.0967 -11.7463
LeftForeArm  55.6935 -5.09508 -5.68563
LeftHand  -0.244104 0.0205437 5.32207
RightShoulder  4.06318 13.2495 17.6578
RightArm  -5.37919 52.2784 51.5172
RightForeArm  31.1694 10.3851 4.58823
RightHand  -33.7621 43.2581 -70.416
LeftUpLeg  -21.6211 -1.19949 6.66564
LeftLeg  82.8556 0.484049 8.24041
LeftFoot  0.630986 0.804824 -7.70831
LeftToes  -7.82198e-011 2.46994e-011 -7.94165e-012
